<?xml version="1.0" standalone="no"?>
<!DOCTYPE svg PUBLIC "-//W3C//DTD SVG 20010904//EN"
 "http://www.w3.org/TR/2001/REC-SVG-20010904/DTD/svg10.dtd">
<svg version="1.0" xmlns="http://www.w3.org/2000/svg"
 width="1280.000000pt" height="828.000000pt" viewBox="0 0 1280.000000 828.000000"
 preserveAspectRatio="xMidYMid meet">
<metadata>
Created by potrace 1.15, written by Peter Selinger 2001-2017
</metadata>
<g transform="translate(0.000000,828.000000) scale(0.100000,-0.100000)"
fill="#000000" stroke="none">
<path d="M843 8266 c-60 -19 -109 -52 -131 -89 -37 -60 -712 -1666 -712 -1692
0 -14 7 -40 16 -58 32 -63 127 -145 161 -139 7 2 13 -2 13 -8 0 -6 11 -8 27
-4 23 4 25 3 13 -6 -12 -9 -6 -10 25 -5 31 4 37 3 25 -5 -12 -10 -11 -11 6 -7
26 5 26 9 -30 -151 -40 -115 -43 -148 -21 -196 34 -72 150 -150 208 -140 25 5
29 3 17 -6 -12 -8 -3 -10 35 -5 38 4 45 3 30 -5 -15 -8 -8 -9 30 -5 37 4 46 3
35 -5 -11 -8 -2 -9 35 -5 37 4 45 3 30 -5 -17 -8 -16 -9 11 -8 17 2 42 -5 55
-13 72 -48 90 -52 219 -52 l125 0 -100 -7 c-91 -5 -84 -6 75 -8 96 -1 201 -6
233 -11 32 -6 72 -7 89 -4 22 4 29 3 24 -5 -5 -9 6 -10 41 -7 37 4 43 3 28 -5
-15 -8 -8 -9 30 -5 37 4 46 3 35 -5 -11 -8 -2 -9 35 -5 38 4 45 3 30 -5 -15
-8 -8 -9 30 -5 37 4 46 3 35 -5 -11 -8 -2 -9 35 -5 38 4 45 3 30 -5 -15 -8 -8
-9 29 -4 34 4 46 2 41 -5 -4 -8 7 -10 37 -6 33 4 38 3 23 -5 -15 -8 -8 -9 29
-4 33 4 46 2 42 -5 -5 -7 8 -9 41 -6 32 4 41 2 28 -3 -13 -6 10 -9 70 -10 108
0 167 21 220 79 l35 39 112 2 113 2 -110 6 -110 6 107 2 c125 2 192 22 255 77
51 44 65 78 97 250 15 77 36 183 46 235 11 52 42 214 70 360 28 146 55 285 60
310 5 25 32 164 60 310 28 146 55 285 60 310 23 108 16 136 -52 194 -50 43
-120 66 -198 66 l-56 0 -42 59 c-31 45 -55 66 -94 85 -49 24 -380 97 -1471
326 -200 43 -247 46 -314 26z m1413 -2669 c-42 -38 -123 -71 -158 -64 -20 4
-19 4 5 6 36 1 128 45 152 71 10 11 23 20 28 20 6 0 -6 -15 -27 -33z"/>
<path d="M4270 7671 c-68 -21 -121 -60 -168 -123 -7 -9 -38 -144 -68 -300 -30
-155 -106 -549 -169 -874 -63 -325 -115 -605 -115 -623 0 -61 47 -118 130
-161 36 -18 72 -19 923 -20 852 -2 887 -1 929 18 24 10 60 34 80 53 42 41 52
72 96 304 46 241 130 678 152 785 10 52 42 214 70 360 28 146 55 284 60 307
18 75 13 121 -19 167 -33 48 -92 92 -142 106 -40 12 -1721 12 -1759 1z m1901
-313 c-11 -57 -43 -222 -71 -368 -28 -146 -69 -355 -90 -465 -22 -110 -64
-330 -95 -490 -31 -159 -63 -307 -72 -328 -9 -21 -30 -50 -47 -64 -41 -35
-125 -73 -156 -72 -20 1 -21 2 -5 6 75 16 148 61 185 112 22 32 32 76 110 481
28 146 59 308 70 360 11 52 42 214 70 360 28 146 64 332 81 415 16 82 30 161
30 175 2 23 2 23 6 3 2 -13 -5 -69 -16 -125z"/>
<path d="M6502 7661 c-65 -22 -119 -65 -144 -113 -10 -20 -53 -213 -98 -444
-43 -225 -121 -624 -172 -887 l-92 -478 23 -44 c15 -28 43 -58 78 -82 l55 -38
882 -5 c839 -5 884 -4 934 14 62 21 120 68 138 111 7 16 40 172 73 345 34 173
66 335 71 360 5 25 32 164 60 310 86 449 110 571 130 670 11 52 20 103 19 115
-1 23 -24 -88 -99 -475 -95 -490 -131 -675 -140 -720 -5 -25 -33 -164 -61
-310 -31 -163 -58 -279 -70 -300 -33 -58 -158 -129 -206 -117 -13 3 -10 5 7 6
38 2 111 39 148 74 61 58 51 25 152 547 28 146 59 308 70 360 22 108 56 287
130 670 28 146 52 273 54 282 9 41 -90 138 -162 158 -24 6 -330 10 -882 10
-792 -1 -848 -2 -898 -19z"/>
<path d="M8732 7661 c-64 -22 -119 -65 -143 -112 -10 -19 -73 -317 -144 -684
-69 -357 -146 -755 -171 -883 -52 -267 -52 -274 22 -342 80 -74 15 -69 992
-70 879 -2 881 -2 929 20 26 11 61 33 76 48 53 50 44 14 157 602 28 146 59
308 70 360 10 52 42 214 70 360 28 146 62 321 76 389 13 69 23 134 23 145 -1
20 -1 20 -6 1 -2 -11 -29 -148 -59 -305 -30 -157 -59 -305 -64 -330 -5 -25
-32 -164 -60 -310 -54 -283 -122 -628 -146 -749 -17 -87 -36 -126 -78 -163
-34 -31 -124 -69 -159 -67 -13 1 -7 4 16 10 54 13 108 43 146 81 51 51 44 27
131 478 28 146 55 285 60 310 5 25 32 164 60 310 28 146 59 308 70 360 47 233
70 365 70 396 0 45 -57 109 -125 140 l-50 24 -855 0 c-802 -1 -858 -2 -908
-19z"/>
<path d="M3091 7580 c0 -14 -14 -93 -30 -175 -17 -83 -53 -269 -81 -415 -28
-146 -55 -285 -60 -310 -5 -25 -37 -187 -70 -360 -96 -498 -99 -512 -118 -543
-25 -43 -83 -87 -144 -108 -38 -14 -43 -17 -18 -13 54 9 131 55 160 96 23 31
34 72 65 230 20 106 48 247 60 313 13 66 47 239 75 385 28 146 60 308 70 360
65 324 101 524 97 543 -4 20 -4 20 -6 -3z"/>
<path d="M3835 5436 c-60 -19 -96 -41 -132 -78 -38 -40 -47 -62 -67 -165 -8
-43 -74 -382 -146 -753 -186 -958 -174 -891 -171 -948 1 -31 73 -106 125 -132
42 -20 56 -20 929 -20 853 -1 889 0 930 18 58 26 110 79 125 128 6 21 34 158
62 304 28 146 55 285 60 310 5 25 23 115 39 200 54 280 132 683 157 807 13 67
23 135 23 150 -2 27 -2 27 -6 3 -2 -14 -15 -81 -28 -150 -95 -499 -127 -661
-135 -700 -5 -25 -37 -187 -70 -360 -123 -636 -113 -598 -173 -644 -41 -31
-115 -66 -142 -65 -11 0 3 8 32 18 61 21 118 62 143 104 21 35 30 74 100 437
28 146 60 308 70 360 11 52 42 214 70 360 28 146 65 333 81 415 16 83 33 181
36 218 l6 68 -39 40 c-21 23 -57 50 -79 62 l-40 22 -860 2 c-674 1 -869 -1
-900 -11z"/>
<path d="M6051 5431 c-62 -22 -94 -44 -133 -93 -26 -31 -35 -66 -94 -369 -215
-1105 -274 -1417 -274 -1458 0 -41 4 -49 54 -97 39 -38 68 -56 103 -66 39 -10
215 -12 898 -8 l850 5 57 28 c72 35 123 94 137 155 6 26 33 166 61 312 28 146
55 285 60 310 5 25 32 164 60 310 28 146 59 308 70 360 55 273 79 410 81 453
3 43 -1 51 -37 88 -21 22 -57 50 -79 62 l-40 22 -860 2 c-816 2 -863 2 -914
-16z"/>
<path d="M8343 5435 c-72 -22 -131 -63 -157 -108 -18 -31 -37 -109 -75 -302
-27 -143 -104 -541 -171 -884 -136 -699 -132 -659 -57 -731 76 -74 23 -70 989
-73 477 -1 860 1 851 4 -12 4 -7 8 17 12 48 10 128 64 155 106 25 38 32 68
115 501 28 146 55 285 60 310 5 25 32 164 60 310 28 146 59 308 70 360 10 52
28 147 40 210 12 63 23 123 25 132 8 42 -91 138 -163 158 -60 16 -1705 12
-1759 -5z"/>
<path d="M7992 5260 c-1 -20 -15 -103 -31 -185 -17 -83 -57 -292 -91 -465 -33
-173 -65 -335 -70 -360 -5 -25 -32 -164 -60 -310 -92 -481 -88 -464 -128 -512
-27 -32 -131 -87 -167 -89 -11 0 -14 -3 -8 -6 20 -8 108 25 152 57 22 16 47
43 56 60 16 31 20 52 105 490 28 146 60 308 70 360 10 52 32 165 49 250 16 85
53 274 81 418 28 145 49 278 47 295 l-4 32 -1 -35z"/>
<path d="M10271 5264 c0 -12 -10 -66 -20 -120 -49 -249 -104 -531 -151 -774
-28 -146 -55 -285 -60 -310 -5 -25 -30 -153 -55 -285 -25 -132 -51 -256 -57
-275 -17 -57 -54 -96 -119 -129 -63 -31 -66 -43 -5 -17 41 17 103 71 121 106
7 14 37 145 65 291 28 145 59 307 70 359 11 52 42 214 70 360 94 489 111 575
131 673 11 54 18 108 16 120 -4 22 -4 22 -6 1z"/>
<path d="M3968 3323 c221 -2 583 -2 805 0 221 1 40 2 -403 2 -443 0 -624 -1
-402 -2z"/>
<path d="M6198 3323 c221 -2 583 -2 805 0 221 1 40 2 -403 2 -443 0 -624 -1
-402 -2z"/>
<path d="M8478 3323 c221 -2 583 -2 805 0 221 1 40 2 -403 2 -443 0 -624 -1
-402 -2z"/>
<path d="M3346 3145 c-63 -26 -109 -63 -133 -108 -8 -16 -37 -144 -64 -285
-231 -1190 -289 -1493 -289 -1512 0 -60 73 -140 152 -167 32 -11 206 -13 913
-14 773 0 878 2 911 16 59 24 103 63 124 108 11 23 43 161 70 307 28 146 60
308 70 360 11 52 42 214 70 360 75 390 109 566 126 647 8 40 14 80 13 90 -1
25 -47 -203 -169 -837 -28 -146 -55 -285 -60 -310 -5 -25 -32 -163 -60 -308
-28 -145 -56 -275 -61 -290 -23 -60 -113 -124 -195 -136 -30 -5 -25 -2 22 14
68 22 145 83 162 127 12 31 27 102 102 493 28 146 62 319 75 385 12 66 40 208
61 315 20 107 56 290 79 405 39 192 41 212 27 235 -26 45 -65 80 -116 105
l-50 25 -860 0 -861 0 -59 -25z"/>
<path d="M7881 3159 c-89 -26 -164 -101 -180 -181 -6 -29 -72 -368 -146 -753
-75 -385 -147 -756 -160 -825 -14 -69 -25 -140 -25 -158 0 -45 22 -84 69 -121
82 -65 25 -61 990 -62 l879 0 48 22 c68 33 111 80 128 142 8 28 28 129 46 222
18 94 45 235 61 315 45 232 84 436 139 720 28 146 60 308 71 360 10 52 19 111
19 132 0 47 -34 103 -84 141 -78 60 -29 57 -963 56 -520 0 -871 -5 -892 -10z
m1910 -311 c-11 -57 -43 -222 -71 -368 -28 -146 -55 -285 -60 -310 -12 -56
-74 -376 -135 -695 -25 -132 -53 -257 -62 -278 -27 -62 -109 -119 -188 -131
-38 -6 -37 -5 9 10 61 19 127 64 156 104 22 31 32 73 110 480 28 146 60 308
70 360 11 52 42 214 70 360 28 146 64 332 81 415 16 82 30 161 30 175 2 23 2
23 6 3 2 -13 -5 -69 -16 -125z"/>
<path d="M5645 3096 c-99 -32 -166 -95 -184 -174 -41 -181 -331 -1709 -331
-1746 0 -41 5 -52 43 -93 82 -89 6 -83 1017 -83 l891 -1 51 28 c28 15 63 44
78 64 30 41 30 41 100 409 28 146 60 308 70 360 18 90 85 435 151 780 16 85
34 174 39 197 6 23 9 59 9 80 -1 33 -3 30 -9 -17 -5 -30 -22 -125 -38 -210
-66 -334 -114 -582 -143 -730 -16 -85 -43 -225 -60 -310 -16 -85 -43 -225 -59
-310 -17 -85 -37 -174 -46 -197 -19 -52 -80 -106 -142 -127 -63 -22 -77 -19
-19 4 57 22 108 59 137 99 21 31 28 60 130 591 28 146 59 308 70 360 10 52 42
214 70 360 28 146 60 309 71 364 28 142 26 178 -12 221 -18 20 -53 48 -78 63
l-46 27 -860 2 c-674 1 -869 -1 -900 -11z"/>
<path d="M10647 2669 c-58 -14 -114 -46 -140 -81 -13 -18 -180 -401 -371 -850
-256 -605 -346 -828 -346 -857 0 -27 10 -53 33 -87 35 -53 119 -116 142 -107
21 7 20 0 -21 -114 -46 -129 -43 -154 27 -228 28 -29 64 -58 82 -65 18 -6 39
-15 48 -20 8 -4 29 -6 45 -4 25 4 26 3 9 -6 -15 -8 -8 -9 30 -5 37 4 46 3 35
-5 -11 -8 -2 -9 35 -5 38 4 45 3 30 -5 -15 -8 -8 -9 29 -4 33 4 46 2 42 -5 -5
-7 2 -10 16 -9 13 1 41 -10 63 -25 23 -15 63 -32 90 -38 46 -10 410 -31 530
-30 39 0 46 -2 30 -10 -15 -7 -9 -8 23 -4 30 4 41 2 37 -6 -5 -7 7 -9 41 -5
37 5 44 4 29 -4 -15 -8 -8 -9 30 -5 37 4 46 3 35 -5 -11 -8 -2 -9 35 -5 38 4
45 3 30 -5 -15 -8 -8 -9 30 -5 37 4 46 3 35 -5 -11 -8 -2 -9 35 -5 38 4 45 3
30 -5 -15 -8 -8 -9 29 -4 34 4 46 2 41 -5 -4 -8 7 -10 37 -5 34 4 40 3 28 -6
-12 -9 -6 -10 28 -6 24 4 41 3 38 -2 -3 -5 37 -8 89 -6 109 2 169 25 213 80
l27 34 105 1 c76 1 97 4 75 10 -23 6 -19 7 20 4 71 -7 138 18 195 74 53 51 49
37 109 351 16 85 53 274 81 420 28 146 59 308 70 360 126 632 139 718 114 770
-16 33 -81 94 -122 114 -18 9 -63 20 -100 23 -52 5 -75 12 -102 34 -46 35 -93
49 -350 103 -118 25 -343 73 -500 106 -157 33 -368 78 -470 100 -102 22 -228
48 -280 59 -102 22 -143 24 -203 10z m2119 -717 c-8 -42 -38 -196 -66 -342
-28 -146 -55 -285 -60 -310 -5 -25 -23 -115 -39 -200 -113 -587 -155 -790
-171 -826 -9 -22 -31 -51 -48 -63 -42 -29 -113 -61 -137 -60 -11 0 -2 6 21 13
57 18 113 59 144 105 21 30 34 78 59 207 18 93 46 234 61 314 16 80 52 264 80
410 28 146 64 330 79 410 16 80 42 212 57 293 16 81 30 143 32 137 2 -6 -3
-45 -12 -88z m-2068 -1809 c-15 -2 -42 -2 -60 0 -18 2 -6 4 27 4 33 0 48 -2
33 -4z m1430 0 c-15 -2 -42 -2 -60 0 -18 2 -6 4 27 4 33 0 48 -2 33 -4z m-169
-49 c-31 -34 -85 -61 -134 -68 l-40 -6 40 13 c56 19 97 42 119 66 11 12 24 21
29 21 6 0 0 -12 -14 -26z"/>
<path d="M5768 983 c226 -2 598 -2 825 0 226 1 41 2 -413 2 -454 0 -639 -1
-412 -2z"/>
</g>
</svg>
