<svg width="1453" height="1884" viewBox="0 0 1453 1884" fill="none" xmlns="http://www.w3.org/2000/svg">
<g filter="url(#filter0_f_11:77)">
<path fill-rule="evenodd" clip-rule="evenodd" d="M1375 12C1411.45 12 1441 41.5492 1441 78V1806C1441 1842.45 1411.45 1872 1375 1872H78C41.5492 1872 12 1842.45 12 1806V78C12 41.5492 41.5492 12 78 12H1375ZM4 78C4 37.1309 37.1309 4 78 4H1375C1415.87 4 1449 37.1309 1449 78V1806C1449 1846.87 1415.87 1880 1375 1880H78C37.1309 1880 4 1846.87 4 1806V78ZM1338 182C1338 145.549 1308.45 116 1272 116H182C145.549 116 116 145.549 116 182V856C116 892.451 145.549 922 182 922H1057V460V452H1065H1249H1257V460V922H1272C1308.45 922 1338 892.451 1338 856V182ZM1249 922H1065V460H1249V922ZM108 856C108 896.869 141.131 930 182 930H1057H1065H1249H1257H1272C1312.87 930 1346 896.869 1346 856V182C1346 141.131 1312.87 108 1272 108H182C141.131 108 108 141.131 108 182V856ZM865 690H693V862H865V690ZM693 682H685V690V862V870H693H865H873V862V690V682H865H693ZM495 294H311V768H495V294ZM311 286H303V294V768V776H311H495H503V768V294V286H495H311ZM495 1219C495 1254.9 465.898 1284 430 1284C394.102 1284 365 1254.9 365 1219C365 1183.1 394.102 1154 430 1154C465.898 1154 495 1183.1 495 1219ZM503 1219C503 1259.32 470.317 1292 430 1292C389.683 1292 357 1259.32 357 1219C357 1178.68 389.683 1146 430 1146C470.317 1146 503 1178.68 503 1219ZM430 1576C465.898 1576 495 1546.9 495 1511C495 1475.1 465.898 1446 430 1446C394.102 1446 365 1475.1 365 1511C365 1546.9 394.102 1576 430 1576ZM430 1584C470.317 1584 503 1551.32 503 1511C503 1470.68 470.317 1438 430 1438C389.683 1438 357 1470.68 357 1511C357 1551.32 389.683 1584 430 1584ZM641 1365C641 1400.9 611.898 1430 576 1430C540.102 1430 511 1400.9 511 1365C511 1329.1 540.102 1300 576 1300C611.898 1300 641 1329.1 641 1365ZM649 1365C649 1405.32 616.317 1438 576 1438C535.683 1438 503 1405.32 503 1365C503 1324.68 535.683 1292 576 1292C616.317 1292 649 1324.68 649 1365ZM284 1430C319.898 1430 349 1400.9 349 1365C349 1329.1 319.898 1300 284 1300C248.101 1300 219 1329.1 219 1365C219 1400.9 248.101 1430 284 1430ZM284 1438C324.317 1438 357 1405.32 357 1365C357 1324.68 324.317 1292 284 1292C243.683 1292 211 1324.68 211 1365C211 1405.32 243.683 1438 284 1438ZM948 1047C948 1070.2 929.196 1089 906 1089C882.804 1089 864 1070.2 864 1047C864 1023.8 882.804 1005 906 1005C929.196 1005 948 1023.8 948 1047ZM956 1047C956 1074.61 933.614 1097 906 1097C878.386 1097 856 1074.61 856 1047C856 1019.39 878.386 997 906 997C933.614 997 956 1019.39 956 1047ZM1085 1089C1108.2 1089 1127 1070.2 1127 1047C1127 1023.8 1108.2 1005 1085 1005C1061.8 1005 1043 1023.8 1043 1047C1043 1070.2 1061.8 1089 1085 1089ZM1085 1097C1112.61 1097 1135 1074.61 1135 1047C1135 1019.39 1112.61 997 1085 997C1057.39 997 1035 1019.39 1035 1047C1035 1074.61 1057.39 1097 1085 1097ZM1299 1047C1299 1070.2 1280.2 1089 1257 1089C1233.8 1089 1215 1070.2 1215 1047C1215 1023.8 1233.8 1005 1257 1005C1280.2 1005 1299 1023.8 1299 1047ZM1307 1047C1307 1074.61 1284.61 1097 1257 1097C1229.39 1097 1207 1074.61 1207 1047C1207 1019.39 1229.39 997 1257 997C1284.61 997 1307 1019.39 1307 1047ZM1179 1455C1241.96 1455 1293 1403.96 1293 1341C1293 1278.04 1241.96 1227 1179 1227C1116.04 1227 1065 1278.04 1065 1341C1065 1403.96 1116.04 1455 1179 1455ZM1179 1463C1246.38 1463 1301 1408.38 1301 1341C1301 1273.62 1246.38 1219 1179 1219C1111.62 1219 1057 1273.62 1057 1341C1057 1408.38 1111.62 1463 1179 1463Z" fill="white"/>
</g>
<defs>
<filter id="filter0_f_11:77" x="0" y="0" width="1453" height="1884" filterUnits="userSpaceOnUse" color-interpolation-filters="sRGB">
<feFlood flood-opacity="0" result="BackgroundImageFix"/>
<feBlend mode="normal" in="SourceGraphic" in2="BackgroundImageFix" result="shape"/>
<feGaussianBlur stdDeviation="2" result="effect1_foregroundBlur_11:77"/>
</filter>
</defs>
</svg>
